ModelForces
version=1
nRows=4
nColumns=94
inDegrees=yes

This file contains the forces exerted on a model during a simulation.

A force is a generalized force, meaning that it can be either a force (N) or a torque (Nm).

Units are S.I. units (second, meters, Newtons, ...)
Angles are in degrees.

endheader 
time	addbrev_l	addlong_l	addmagDist_l	addmagIsch_l	addmagMid_l	addmagProx_l	bflh_l	bfsh_l	edl_l	ehl_l	fdl_l	fhl_l	gaslat_l	gasmed_l	glmax1_l	glmax2_l	glmax3_l	glmed1_l	glmed2_l	glmed3_l	glmin1_l	glmin2_l	glmin3_l	grac_l	iliacus_l	perbrev_l	perlong_l	piri_l	psoas_l	recfem_l	sart_l	semimem_l	semiten_l	soleus_l	tfl_l	tibant_l	tibpost_l	vasint_l	vaslat_l	vasmed_l	addbrev_r	addlong_r	addmagDist_r	addmagIsch_r	addmagMid_r	addmagProx_r	bflh_r	bfsh_r	edl_r	ehl_r	fdl_r	fhl_r	gaslat_r	gasmed_r	glmax1_r	glmax2_r	glmax3_r	glmed1_r	glmed2_r	glmed3_r	glmin1_r	glmin2_r	glmin3_r	grac_r	iliacus_r	perbrev_r	perlong_r	piri_r	psoas_r	recfem_r	sart_r	semimem_r	semiten_r	soleus_r	tfl_r	tibant_r	tibpost_r	vasint_r	vaslat_r	vasmed_r	lumbar_extension	lumbar_bending	lumbar_rotation	arm_flex_l	arm_add_l	arm_rot_l	arm_flex_r	arm_add_r	arm_rot_r	elbow_flex_l	elbow_flex_r	pro_sup_l	pro_sup_r	
          4.87000000	          8.76189562	        198.43922995	          7.18492167	          7.63193220	          5.88042736	         65.05138955	         22.95537649	         31.30303253	         61.51953254	         12.69766077	          5.72649913	         10.82959148	         18.27000468	         67.14164711	         13.14140236	         27.25692995	         10.51486537	         11.27388266	          7.47031925	         16.36558026	          3.14951705	          5.28000898	          6.42524331	          8.11892010	        338.84249275	         25.58670251	         85.00221122	        340.49062081	       1100.47887119	        315.19779139	        106.70267072	         92.96740094	         13.97473352	        115.78397543	         35.71347433	        212.65874708	         21.12769433	        190.66780864	        374.79359076	        107.79699890	         40.52411985	         77.35358865	         14.15365703	         47.74424867	         15.21425032	         16.42049374	         38.25197109	         37.00351240	         29.75455991	          9.11953571	          2.66777038	          7.54068398	         45.35741568	         74.38603342	          9.45196956	         13.51470678	          8.41618114	         83.62479651	          9.61004660	         11.38703728	         17.55117385	          5.29916216	          6.67166364	         10.81730111	         25.87242494	         13.67849496	         40.48727014	         16.41860052	         37.49248250	         33.69754588	          7.61952160	        132.39272777	        119.81796210	         29.79708063	          5.87909887	        122.96371763	         12.66251899	         18.15131689	         44.95780347	         24.74098106	       -138.63119503	         -0.55329368	         63.52992945	         -4.94060223	         31.46269590	         15.97104405	       -122.07886735	       -100.16686565	          0.19142684	         44.34088412	        -40.35553945	         -0.00447562	          1.87679925	
          4.88000000	         12.71192662	        231.39583305	          7.21489433	          7.59595556	          5.87181197	         84.73290258	         18.83667156	         25.97657685	         50.78882694	         10.05308962	          6.86805837	         11.00809318	         15.96976281	         54.20169452	         11.33003480	         23.27571316	         10.68853482	          9.21424072	          7.21450400	         13.89711402	          2.86004225	          4.35666675	          5.42978663	          6.62827566	        270.20269917	         21.44762279	         71.87829558	        326.65418489	       1099.86199381	        283.64704042	        103.81832014	         74.98728365	         11.50494415	         95.62255309	         27.25883944	        183.03120029	         23.33017051	        264.60863342	        314.34666473	         90.45329315	         34.73830179	         67.45212763	         25.07347340	         39.28169053	         16.91334927	         17.86406930	          0.30266003	         30.81665314	         31.10294585	          6.09103140	          1.97642361	          5.75608245	         33.72419720	         53.22535176	         10.21034368	         13.61384806	         24.03763367	         69.26515803	          9.74064242	         11.83533427	         14.61991941	          5.17499720	          7.04907724	          9.20973901	         22.60774059	         14.03619105	         34.58123683	         19.07179063	         32.26038162	         25.44885479	          6.41088205	        119.84230421	         98.29161653	         33.77347311	          5.11139963	        111.16084413	          9.52659416	         31.91898424	        135.83830528	         50.16916158	       -131.47059096	         -8.09155840	         77.97264977	         14.34472484	         60.00430628	         49.31550474	       -128.52561259	       -111.87135365	          0.33870492	         60.76593412	        -49.55864362	          0.50860495	          2.04409379	
          4.89000000	         93.40028046	        182.36058957	          7.15970054	          7.47941607	          5.81650636	        135.50464239	         15.41925575	         21.84321746	         42.42295140	          9.53280932	          6.02904247	         11.14662720	         15.94412883	         45.29176839	          9.88521316	         19.85968786	         10.78917196	          9.02716159	          7.41919933	         11.93276289	          2.90903965	          3.72192492	          4.83642235	          8.40081940	        230.31101397	         18.66567727	         59.67815172	        291.50531996	       1106.63810884	        245.36063020	        106.12328955	         60.66765922	          9.51108470	         77.19631390	         21.46922381	        159.38758456	         20.48956669	        282.22340069	        258.05473438	         74.40514608	         30.83346569	         58.65443223	         37.26124026	         33.00364642	         20.06711176	         16.50555496	        203.94080011	         25.97530071	         27.30709263	          9.94581637	          2.22351254	          5.24909448	         33.38108520	         55.48942670	         27.09735547	         42.75939938	        132.41508214	         55.91366905	          9.36655775	         11.92795172	         11.75924644	          4.75725073	          6.61716565	          8.12960015	         19.43197255	         11.81235069	         28.62548060	         20.90808093	         27.65970819	         30.37587775	          5.39437570	        110.68381149	         83.14899086	         35.29983915	          3.97213996	        108.15834257	          7.46116861	         32.41879553	        186.65898193	         59.28388148	        -87.55646097	        -15.57072665	         93.77088312	         47.87240017	         82.16707455	         73.98374076	       -133.04254910	        -52.69111179	          0.30982029	         57.53985957	        -43.24121215	          1.54516626	          0.76596276	
          4.90000000	         61.49992472	        245.14273380	          7.25205178	          7.57040575	          5.42323943	        122.68335555	         13.03412394	         18.27675728	         36.02226601	          6.82510135	          7.45448383	         12.34693461	         14.73205185	         33.70578693	         10.26886465	         17.55943068	          7.59400072	          9.39912944	          7.70753233	         10.36386877	          2.96698240	          3.52250333	          4.33825233	         15.97986023	        173.00311546	         15.05988562	         49.81433049	        249.55763006	       1026.63000983	        202.07057450	         87.95064361	         50.45336910	          8.03722241	         60.62901892	         17.41114624	        133.59593291	         33.27550213	        269.11168114	        211.65374596	         61.18528113	         27.25539273	         59.44755042	         32.22191540	         28.17303260	         17.58860763	         14.40280089	        182.27128000	         22.05115572	         45.62576810	          4.80018713	          1.67437873	          4.50496188	         28.20089461	         46.93589407	         24.61905088	         70.83807533	        113.09976027	         44.61185163	          8.81186512	         10.93726014	          9.29276619	          4.34518250	          5.91742090	          7.22918656	         16.57135262	         11.18885521	         25.06352829	         17.86136468	         23.80699810	          0.09036315	          4.54331378	         98.75710999	         69.30411149	         43.23442522	          3.59440222	         90.00846062	          5.86506901	         55.96783339	        318.10627279	         77.74384484	        -72.19989824	        -22.44100115	        102.22125630	          2.50036286	         34.38103159	         92.15529933	        -78.43314906	         -1.62629763	         32.40612302	         15.91392153	          3.89524027	          3.66481707	          5.72692156	
